<?xml version="1.0" encoding="utf-8"?>
<svg id="svg" version="1.1" width="400" height="318.53785900783294" viewBox="0, 0, 400,318.53785900783294" xmlns="http://www.w3.org/2000/svg">
  <g id="svgg">
    <path id="path1" d="M252.112 16.760 C 237.424 19.218,227.618 26.996,224.216 38.884 C 223.940 39.849,223.562 41.068,223.376 41.594 C 222.812 43.187,221.992 46.981,220.966 52.749 C 220.099 57.622,220.090 146.997,220.956 149.947 C 221.263 150.992,221.515 152.283,221.516 152.816 C 221.517 153.349,221.712 154.157,221.949 154.611 C 222.186 155.066,222.478 155.956,222.597 156.590 C 222.715 157.224,223.022 158.142,223.277 158.632 C 223.532 159.121,223.742 159.836,223.743 160.220 C 223.744 160.604,223.870 160.996,224.022 161.090 C 224.175 161.184,224.711 162.089,225.214 163.101 C 225.717 164.112,226.202 165.012,226.292 165.100 C 226.620 165.421,227.888 167.310,227.888 167.477 C 227.888 167.572,228.139 167.904,228.446 168.216 C 228.753 168.527,229.506 169.404,230.120 170.165 C 230.733 170.925,232.454 172.461,233.944 173.577 C 235.434 174.693,236.814 175.740,237.010 175.904 C 237.206 176.068,238.425 176.732,239.719 177.378 C 241.013 178.025,242.314 178.678,242.610 178.830 C 242.906 178.981,244.269 179.456,245.638 179.886 C 255.175 182.877,269.084 182.530,277.669 179.085 C 278.490 178.756,279.441 178.486,279.781 178.486 C 280.121 178.486,280.579 178.271,280.797 178.008 C 281.015 177.745,281.394 177.530,281.640 177.530 C 282.041 177.530,284.783 175.824,287.811 173.692 C 289.152 172.748,291.928 170.086,292.406 169.286 C 292.594 168.970,293.318 167.863,294.012 166.826 C 295.381 164.784,296.414 162.901,296.414 162.451 C 296.414 162.295,296.614 161.716,296.858 161.164 C 297.652 159.368,298.371 157.007,298.641 155.317 C 298.786 154.406,299.013 153.485,299.147 153.269 C 299.652 152.452,300.215 139.979,300.227 129.343 C 300.240 117.140,300.251 117.067,302.219 115.790 C 305.479 113.674,311.662 115.304,312.747 118.566 C 313.121 119.687,313.328 116.404,313.241 110.757 L 313.147 104.701 306.056 104.615 L 298.964 104.530 298.964 107.219 C 298.964 108.698,298.877 110.135,298.771 110.412 C 298.598 110.862,296.956 110.917,283.552 110.921 C 275.287 110.924,268.357 111.034,268.150 111.165 C 267.871 111.343,267.745 115.847,267.661 128.611 C 267.563 143.511,267.481 145.945,267.046 146.773 C 266.770 147.299,266.254 148.340,265.899 149.088 C 262.712 155.810,253.581 152.727,252.436 144.542 C 251.994 141.379,252.005 57.107,252.448 54.085 C 253.450 47.252,257.663 44.285,262.988 46.661 C 267.442 48.647,267.511 48.950,267.654 67.171 L 267.773 82.230 268.468 82.399 C 268.851 82.491,275.976 82.527,284.303 82.479 L 299.442 82.390 299.542 65.817 C 299.647 48.518,299.489 45.838,298.132 41.902 C 297.889 41.195,297.689 40.337,297.689 39.996 C 297.689 39.100,296.432 36.082,295.393 34.486 C 294.903 33.732,294.502 33.041,294.502 32.950 C 294.502 31.620,288.140 25.163,284.622 22.921 C 280.078 20.027,278.241 19.278,270.916 17.337 C 268.928 16.810,254.463 16.366,252.112 16.760 M8.048 18.059 C 7.373 18.332,7.477 48.631,8.154 48.890 C 8.431 48.997,12.626 49.086,17.476 49.089 C 22.326 49.091,26.474 49.207,26.692 49.346 C 27.008 49.546,27.107 63.180,27.171 115.078 L 27.251 180.558 43.267 180.640 L 59.283 180.723 59.288 115.302 C 59.290 79.320,59.403 49.708,59.537 49.496 C 59.716 49.214,62.256 49.087,69.068 49.018 C 74.175 48.967,78.444 48.835,78.553 48.725 C 78.663 48.615,78.782 41.659,78.818 33.267 L 78.884 18.008 43.665 17.953 C 24.295 17.922,8.267 17.970,8.048 18.059 M88.249 18.078 C 88.124 18.890,88.378 180.268,88.504 180.398 C 88.589 180.486,95.854 180.558,104.648 180.558 L 120.637 180.558 120.718 143.703 C 120.782 114.743,120.885 106.782,121.197 106.536 C 121.972 105.926,127.473 106.575,129.416 107.505 C 133.726 109.568,133.535 107.731,133.541 147.325 L 133.546 180.386 134.263 180.560 C 134.657 180.656,141.721 180.695,149.960 180.646 L 164.940 180.558 164.940 146.454 C 164.940 109.167,165.046 111.545,163.143 106.189 C 161.655 102.002,157.883 97.530,155.839 97.530 C 155.640 97.530,155.096 97.316,154.631 97.054 C 154.166 96.792,153.390 96.437,152.908 96.265 C 152.426 96.093,152.032 95.802,152.032 95.618 C 152.032 95.434,152.426 95.139,152.908 94.964 C 153.936 94.589,155.946 93.617,156.175 93.383 C 156.263 93.294,156.950 92.822,157.702 92.334 C 160.208 90.710,163.825 86.305,163.825 84.877 C 163.825 84.552,164.016 84.002,164.251 83.657 C 164.799 82.847,165.710 80.005,166.081 77.946 C 166.240 77.060,166.535 75.618,166.735 74.741 C 167.324 72.158,167.195 51.523,166.568 48.127 C 166.293 46.637,166.066 44.988,166.064 44.462 C 166.062 43.936,165.835 42.215,165.559 40.637 C 163.395 28.238,156.900 20.818,146.135 18.447 C 143.980 17.972,88.319 17.617,88.249 18.078 M177.169 18.088 C 176.885 19.720,177.354 180.287,177.644 180.473 C 178.120 180.779,207.218 180.779,207.697 180.473 C 208.277 180.102,208.442 18.234,207.862 18.011 C 207.181 17.750,177.215 17.824,177.169 18.088 M130.942 48.005 C 134.411 48.699,135.734 51.978,135.984 60.503 C 136.412 75.088,134.443 78.514,125.737 78.338 L 121.275 78.247 121.192 63.426 C 121.146 55.275,121.178 48.426,121.262 48.207 C 121.425 47.780,129.022 47.621,130.942 48.005 M314.343 125.787 C 313.699 126.049,313.796 131.190,314.448 131.440 C 314.726 131.546,316.848 131.633,319.166 131.633 C 324.650 131.633,324.143 130.607,324.143 141.731 L 324.143 151.064 324.861 151.238 C 325.255 151.335,330.096 151.373,335.618 151.324 L 345.657 151.235 345.657 138.486 L 345.657 125.737 330.199 125.681 C 321.697 125.650,314.562 125.698,314.343 125.787 M346.087 196.175 C 345.972 197.227,345.650 198.518,345.371 199.044 C 345.093 199.570,344.864 200.363,344.863 200.806 C 344.861 201.249,344.664 201.894,344.423 202.240 C 344.183 202.586,343.884 203.335,343.760 203.904 C 343.636 204.474,343.403 204.940,343.242 204.940 C 343.080 204.940,342.939 205.191,342.927 205.498 C 342.915 205.805,342.486 206.773,341.972 207.649 C 341.459 208.526,340.940 209.458,340.820 209.721 C 340.087 211.321,334.110 217.689,333.340 217.689 C 333.153 217.689,332.477 218.091,331.839 218.581 C 331.200 219.072,329.530 220.017,328.127 220.682 C 326.725 221.346,325.197 222.092,324.732 222.340 C 324.266 222.587,323.576 222.789,323.197 222.789 C 322.818 222.789,322.195 222.958,321.812 223.164 C 321.429 223.371,320.112 223.722,318.884 223.944 C 317.657 224.167,315.865 224.503,314.900 224.691 C 312.049 225.249,298.467 225.174,296.733 224.591 C 295.944 224.325,294.725 224.010,294.024 223.889 C 292.651 223.653,289.380 222.630,288.505 222.162 C 288.210 222.005,286.857 221.339,285.498 220.682 C 284.139 220.026,283.028 219.367,283.028 219.218 C 283.028 219.070,282.679 218.816,282.252 218.653 C 280.742 218.079,273.706 211.298,273.303 210.029 C 273.194 209.684,272.987 209.402,272.844 209.402 C 272.701 209.402,272.492 209.151,272.380 208.845 C 272.268 208.538,271.824 207.713,271.393 207.012 C 270.963 206.311,270.528 205.522,270.428 205.259 C 270.328 204.996,270.038 204.375,269.785 203.879 C 269.531 203.382,269.323 202.783,269.323 202.547 C 269.323 202.104,267.639 201.116,266.883 201.116 C 266.273 201.116,266.285 212.770,266.900 216.452 C 267.146 217.921,267.436 219.867,267.546 220.776 C 267.656 221.685,267.956 222.833,268.213 223.326 C 268.471 223.819,268.682 224.606,268.683 225.074 C 268.684 225.542,268.887 226.330,269.133 226.827 C 269.379 227.323,269.891 228.446,270.270 229.323 C 270.650 230.199,271.152 231.275,271.386 231.713 C 271.621 232.151,272.077 233.012,272.400 233.625 C 272.724 234.239,273.061 234.812,273.149 234.900 C 273.238 234.988,273.920 235.879,274.664 236.880 C 277.150 240.223,278.163 241.111,283.832 244.924 C 286.012 246.390,287.440 247.120,289.159 247.649 C 289.814 247.850,290.432 248.148,290.532 248.310 C 290.633 248.473,291.074 248.606,291.514 248.606 C 291.953 248.606,292.609 248.764,292.971 248.958 C 295.524 250.324,310.027 251.150,314.263 250.171 C 315.052 249.988,316.558 249.715,317.610 249.564 C 320.023 249.217,322.133 248.672,323.293 248.097 C 323.789 247.851,324.394 247.649,324.638 247.649 C 325.034 247.649,327.032 246.772,328.287 246.048 C 328.550 245.896,329.482 245.385,330.359 244.914 C 334.389 242.744,338.534 238.736,340.652 234.962 C 343.369 230.118,345.198 224.467,345.625 219.602 C 345.740 218.287,345.981 216.207,346.162 214.980 C 346.348 213.713,346.448 208.754,346.392 203.506 C 346.337 198.286,346.204 195.095,346.087 196.175 M73.453 224.141 C 73.369 224.362,73.337 230.137,73.383 236.973 L 73.466 249.402 83.825 249.481 C 89.522 249.524,96.693 249.453,99.761 249.322 L 105.339 249.084 105.339 236.494 L 105.339 223.904 89.473 223.822 C 76.935 223.756,73.575 223.823,73.453 224.141 M135.036 223.955 C 134.729 224.261,134.778 248.363,135.086 248.849 C 135.414 249.365,166.187 249.558,166.698 249.047 C 166.906 248.839,166.990 244.342,166.936 236.315 L 166.853 223.904 151.052 223.822 C 142.362 223.776,135.155 223.836,135.036 223.955 M179.906 224.144 C 179.822 224.364,179.791 230.065,179.837 236.814 L 179.920 249.084 195.183 249.166 C 206.187 249.226,210.566 249.149,210.880 248.888 C 211.584 248.304,211.517 224.209,210.811 223.938 C 209.735 223.526,180.068 223.723,179.906 224.144 M223.639 223.958 C 223.334 224.262,223.385 248.366,223.691 248.848 C 223.891 249.163,227.181 249.232,239.065 249.167 L 254.183 249.084 254.267 236.675 C 254.332 226.959,254.263 224.210,253.948 224.010 C 253.466 223.704,223.944 223.653,223.639 223.958 " stroke="none" fill="#e3e3db" fill-rule="evenodd"/>
    <path id="path2" d="M79.681 43.799 C 79.681 46.326,79.594 48.621,79.488 48.898 C 79.318 49.342,78.191 49.402,70.111 49.402 C 65.061 49.402,60.702 49.489,60.424 49.596 C 59.967 49.771,59.920 55.867,59.920 115.413 L 59.920 181.036 55.962 181.036 C 53.785 181.036,51.777 181.123,51.500 181.229 C 50.804 181.497,50.728 201.134,51.422 201.710 C 51.710 201.948,55.245 202.090,62.338 202.147 L 72.829 202.231 72.913 212.419 C 72.959 218.022,73.120 222.730,73.271 222.880 C 73.421 223.031,80.568 223.138,89.153 223.120 C 98.972 223.098,105.075 223.205,105.608 223.407 L 106.454 223.729 106.454 236.468 L 106.454 249.207 105.746 249.703 C 105.198 250.087,104.150 250.199,101.124 250.199 L 97.211 250.199 97.211 260.398 L 97.211 270.598 107.896 270.598 L 118.582 270.598 118.892 271.415 C 119.070 271.882,119.203 276.435,119.203 282.029 C 119.203 289.223,119.305 291.926,119.586 292.207 C 120.065 292.686,151.278 292.754,152.032 292.278 C 152.693 291.860,152.934 250.564,152.278 250.147 C 152.055 250.006,148.046 249.888,143.369 249.885 C 136.069 249.881,134.795 249.810,134.365 249.380 C 133.927 248.941,133.865 247.327,133.865 236.489 L 133.865 224.100 134.573 223.604 C 135.438 222.998,165.919 222.842,167.033 223.438 C 167.627 223.755,167.649 224.240,167.649 236.653 C 167.649 251.820,168.295 250.199,162.252 250.199 L 158.088 250.199 158.088 260.398 L 158.088 270.598 168.545 270.598 C 176.416 270.598,179.132 270.696,179.530 270.996 C 179.998 271.350,180.068 272.540,180.148 281.594 C 180.198 287.203,180.355 291.972,180.497 292.191 C 180.995 292.961,213.119 292.749,213.535 291.973 C 213.742 291.586,213.865 287.634,213.865 281.335 C 213.865 273.192,213.947 271.245,214.305 270.947 C 214.608 270.696,216.386 270.609,219.963 270.669 L 225.179 270.757 225.339 281.275 C 225.426 287.060,225.614 291.972,225.756 292.191 C 225.979 292.536,257.624 292.849,257.918 292.510 C 257.956 292.466,258.063 287.554,258.157 281.594 L 258.327 270.757 262.629 270.662 C 264.996 270.610,267.391 270.651,267.952 270.753 L 268.972 270.939 269.068 281.366 C 269.120 287.101,269.279 291.972,269.421 292.191 C 269.622 292.501,273.113 292.590,285.100 292.590 C 297.086 292.590,300.578 292.501,300.778 292.191 C 300.920 291.972,301.108 285.060,301.195 276.831 L 301.355 261.869 302.999 263.329 C 305.872 265.882,308.802 267.675,312.988 269.442 C 314.989 270.287,316.494 272.146,316.494 273.772 C 316.494 273.954,316.622 274.104,316.778 274.104 C 316.934 274.104,317.151 274.457,317.260 274.889 C 317.458 275.680,319.159 278.450,319.810 279.044 C 320.002 279.219,320.552 279.936,321.032 280.637 C 323.391 284.086,332.318 290.677,334.629 290.677 C 334.977 290.677,335.344 290.812,335.446 290.976 C 335.699 291.386,340.616 292.908,341.685 292.908 C 342.160 292.908,343.159 293.124,343.904 293.386 C 345.778 294.048,358.034 294.066,360.891 293.412 C 361.978 293.162,363.657 292.818,364.622 292.646 C 367.008 292.220,371.182 290.948,372.271 290.314 C 372.534 290.161,372.964 289.953,373.227 289.851 C 374.775 289.253,377.593 287.751,378.556 287.012 C 382.393 284.065,386.053 280.482,386.608 279.127 C 386.699 278.906,387.150 278.146,387.610 277.439 C 388.635 275.865,389.801 273.349,389.801 272.713 C 389.801 272.454,390.001 271.837,390.246 271.341 C 390.837 270.145,391.541 267.577,392.241 264.064 C 392.935 260.580,393.324 223.374,392.678 222.168 C 392.343 221.541,392.012 221.520,381.425 221.438 L 370.518 221.355 370.434 211.331 C 370.370 203.799,370.251 201.245,369.956 201.057 C 369.739 200.919,364.506 200.804,358.327 200.802 L 347.092 200.797 347.068 208.526 C 347.056 212.777,346.907 217.044,346.738 218.008 C 346.569 218.972,346.299 220.752,346.138 221.964 C 345.977 223.176,345.623 224.721,345.353 225.397 C 345.082 226.073,344.861 226.955,344.861 227.356 C 344.861 227.757,344.650 228.364,344.393 228.704 C 344.135 229.044,343.920 229.635,343.915 230.017 C 343.909 230.399,343.689 230.927,343.426 231.190 C 343.163 231.452,342.948 231.810,342.948 231.983 C 342.948 232.260,341.874 234.421,340.839 236.223 C 339.209 239.065,334.488 243.569,331.906 244.747 C 331.530 244.918,331.171 245.175,331.109 245.318 C 330.948 245.687,328.410 247.012,327.864 247.012 C 327.614 247.012,327.230 247.227,327.012 247.490 C 326.794 247.753,326.358 247.968,326.043 247.968 C 325.728 247.968,325.064 248.178,324.568 248.434 C 323.326 249.076,319.434 250.198,318.432 250.204 C 317.980 250.206,317.036 250.403,316.335 250.642 C 313.641 251.557,297.422 251.523,295.589 250.599 C 294.812 250.207,292.113 249.281,290.718 248.928 C 290.127 248.778,289.489 248.501,289.300 248.312 C 289.111 248.123,288.752 247.968,288.503 247.968 C 287.592 247.968,288.798 248.902,289.992 249.120 C 290.632 249.238,291.438 249.528,291.784 249.766 C 292.130 250.004,292.641 250.199,292.921 250.199 C 293.235 250.199,293.967 251.234,294.842 252.915 C 295.619 254.409,296.426 255.951,296.636 256.342 C 296.846 256.732,297.813 257.984,298.785 259.124 L 300.553 261.195 300.476 276.335 L 300.398 291.474 285.100 291.474 L 269.801 291.474 269.801 281.116 L 269.801 270.757 273.865 270.668 L 277.928 270.579 277.928 256.724 L 277.928 242.869 278.735 242.869 C 279.179 242.869,279.624 243.084,279.725 243.347 C 279.826 243.610,280.109 243.825,280.353 243.825 C 280.597 243.825,280.797 243.971,280.797 244.150 C 280.797 244.329,281.191 244.651,281.673 244.865 C 282.586 245.271,282.695 245.343,283.953 246.380 C 284.374 246.728,284.966 247.012,285.269 247.012 C 285.571 247.012,285.997 247.227,286.215 247.490 C 286.433 247.753,286.917 247.966,287.290 247.964 C 287.728 247.961,287.340 247.642,286.197 247.062 C 285.223 246.568,283.531 245.530,282.436 244.755 C 281.342 243.980,279.783 242.887,278.973 242.325 C 277.011 240.963,272.191 235.582,272.191 234.753 C 272.191 234.634,271.976 234.321,271.713 234.058 C 271.450 233.795,271.235 233.319,271.235 232.999 C 271.235 232.680,271.020 232.336,270.757 232.235 C 270.494 232.134,270.279 231.819,270.279 231.533 C 270.279 231.248,270.070 230.634,269.814 230.169 C 268.895 228.497,268.048 226.316,268.037 225.595 C 268.030 225.191,267.820 224.502,267.570 224.064 C 267.319 223.625,267.109 222.747,267.103 222.111 C 267.097 221.475,266.885 220.461,266.633 219.857 C 266.131 218.654,265.537 202.910,265.935 201.325 C 266.259 200.035,269.641 200.539,269.641 201.878 C 269.641 202.166,272.143 207.240,272.754 208.191 C 274.719 211.247,278.084 215.049,280.038 216.419 C 285.034 219.922,288.004 221.620,287.738 220.823 C 287.666 220.609,287.223 220.330,286.752 220.204 C 286.281 220.078,285.294 219.533,284.559 218.992 C 283.823 218.451,283.049 218.008,282.840 218.008 C 282.630 218.008,282.376 217.793,282.275 217.530 C 282.174 217.267,281.952 217.052,281.781 217.052 C 281.610 217.052,280.924 216.550,280.257 215.938 C 279.590 215.325,278.865 214.823,278.645 214.822 C 278.426 214.821,278.247 214.705,278.247 214.562 C 278.247 214.420,277.792 213.839,277.236 213.270 C 275.819 211.821,272.829 207.776,272.829 207.309 C 272.829 207.095,272.614 206.838,272.351 206.737 C 272.088 206.636,271.873 206.273,271.873 205.929 C 271.873 205.586,271.657 205.089,271.394 204.826 C 271.131 204.563,270.916 203.987,270.916 203.545 C 270.916 203.103,270.665 202.581,270.359 202.385 C 269.753 201.999,269.697 201.994,275.219 202.898 C 286.650 204.769,300.141 202.557,308.207 197.487 C 311.391 195.486,312.260 194.813,314.254 192.797 C 316.720 190.305,317.760 188.830,319.366 185.548 C 322.978 178.168,323.822 173.494,323.824 160.876 L 323.825 152.032 330.640 152.032 C 337.187 152.032,337.462 152.057,337.622 152.669 C 337.777 153.263,338.059 153.307,341.723 153.312 C 343.887 153.314,345.858 153.443,346.102 153.598 C 346.613 153.922,346.330 186.601,345.796 188.899 C 345.641 189.570,345.528 191.195,345.546 192.510 L 345.579 194.900 345.832 192.988 C 345.971 191.936,346.240 190.672,346.429 190.178 C 346.640 189.629,346.775 186.359,346.777 181.732 C 346.783 171.615,346.003 172.749,352.961 172.749 C 357.044 172.749,358.870 172.862,359.139 173.131 C 359.421 173.413,359.522 176.142,359.522 183.429 C 359.522 190.859,359.622 193.480,359.920 193.887 C 360.288 194.388,361.566 194.423,376.414 194.346 L 392.510 194.263 392.498 177.211 C 392.483 156.036,392.273 154.332,388.842 147.462 C 385.986 141.743,382.937 137.998,378.944 135.300 C 378.166 134.774,377.458 134.272,377.371 134.184 C 377.071 133.883,375.166 132.590,375.021 132.590 C 374.942 132.590,373.806 132.088,372.495 131.474 C 371.185 130.861,369.965 130.359,369.784 130.359 C 368.624 130.359,367.545 129.135,366.138 126.223 C 362.935 119.593,357.777 114.395,351.235 111.204 C 349.394 110.307,347.673 109.465,347.410 109.334 C 347.015 109.137,346.900 107.853,346.745 101.958 C 346.542 94.247,346.004 88.323,345.302 86.079 C 345.059 85.302,344.861 84.445,344.861 84.172 C 344.861 80.473,337.112 69.011,333.116 66.800 C 332.827 66.640,332.518 66.420,332.430 66.311 C 332.083 65.880,328.719 63.815,327.999 63.591 C 327.578 63.460,326.532 62.939,325.675 62.433 C 324.817 61.928,323.752 61.514,323.308 61.514 C 322.359 61.514,320.637 59.928,320.637 59.055 C 320.637 58.483,317.621 52.918,317.133 52.590 C 317.003 52.502,316.015 51.319,314.938 49.960 C 313.861 48.602,312.875 47.490,312.745 47.489 C 312.616 47.489,312.008 47.049,311.394 46.511 C 308.449 43.929,301.701 40.327,299.297 40.053 C 298.716 39.987,298.807 42.278,299.453 43.971 C 300.185 45.888,300.558 54.236,300.558 68.684 L 300.558 82.535 299.787 83.040 C 299.146 83.460,298.381 83.513,295.245 83.350 C 291.477 83.156,278.820 83.109,271.841 83.264 C 266.556 83.382,267.092 85.086,267.092 68.158 C 267.092 56.156,267.014 53.659,266.614 52.700 C 266.351 52.071,266.135 51.221,266.135 50.811 C 266.135 49.450,263.985 47.595,261.991 47.236 C 259.115 46.719,254.980 47.655,254.980 48.824 C 254.980 48.992,254.765 49.344,254.502 49.607 C 254.239 49.870,254.024 50.406,254.024 50.799 C 254.024 51.191,253.813 51.790,253.556 52.130 C 252.848 53.066,252.828 145.538,253.536 146.473 C 253.793 146.813,254.008 147.397,254.014 147.770 C 254.019 148.144,254.632 149.076,255.375 149.842 L 256.726 151.235 259.692 151.346 C 262.869 151.465,264.853 150.727,264.858 149.425 C 264.860 149.131,265.046 148.701,265.273 148.469 C 266.918 146.788,267.092 144.770,267.092 127.347 C 267.092 113.301,267.159 110.894,267.564 110.490 C 267.972 110.081,270.061 110.042,283.141 110.197 L 298.246 110.376 298.378 107.379 C 298.558 103.250,297.872 103.586,306.143 103.586 C 314.869 103.586,313.944 102.478,313.944 112.937 L 313.944 121.056 313.157 120.687 C 312.702 120.474,312.285 119.940,312.171 119.423 C 311.909 118.239,310.084 116.448,308.867 116.180 C 308.333 116.063,307.814 115.835,307.714 115.673 C 307.428 115.209,304.926 115.349,304.242 115.867 C 303.902 116.124,303.364 116.335,303.047 116.335 C 301.226 116.335,301.198 116.532,301.161 129.960 C 301.116 146.713,300.335 155.040,298.455 158.831 C 298.209 159.327,298.008 160.022,298.008 160.375 C 298.008 160.728,297.810 161.398,297.567 161.863 C 297.325 162.328,296.715 163.539,296.213 164.553 C 294.687 167.633,292.837 170.355,292.071 170.649 C 291.830 170.741,291.633 170.965,291.633 171.145 C 291.633 171.466,290.500 172.749,290.217 172.749 C 290.139 172.749,289.529 173.250,288.862 173.863 C 288.195 174.476,287.527 174.978,287.377 174.979 C 287.226 174.979,286.572 175.401,285.923 175.915 C 284.508 177.036,280.529 179.120,279.800 179.122 C 279.515 179.123,279.103 179.339,278.884 179.602 C 278.666 179.865,278.039 180.084,277.491 180.090 C 276.943 180.095,276.216 180.311,275.875 180.568 C 275.535 180.825,274.777 181.036,274.192 181.036 C 273.606 181.036,272.594 181.261,271.942 181.536 C 270.864 181.991,267.934 182.352,261.355 182.841 C 257.089 183.158,250.061 182.227,246.534 180.877 C 245.307 180.407,243.913 179.949,243.437 179.857 C 242.960 179.766,242.405 179.492,242.202 179.248 C 242.000 179.004,241.583 178.805,241.275 178.805 C 240.967 178.805,240.537 178.590,240.319 178.327 C 240.100 178.064,239.711 177.849,239.452 177.849 C 238.928 177.849,233.625 174.408,233.625 174.068 C 233.625 173.949,233.016 173.511,232.271 173.095 C 231.070 172.424,230.360 171.707,227.827 168.606 C 226.059 166.442,223.122 161.257,223.097 160.259 C 223.092 160.029,222.877 159.562,222.619 159.222 C 222.362 158.882,222.147 158.236,222.141 157.788 C 222.136 157.339,221.921 156.694,221.663 156.353 C 221.406 156.013,221.195 155.246,221.195 154.649 C 221.195 154.051,220.993 153.111,220.746 152.558 C 218.795 148.202,218.792 55.817,220.742 49.744 C 220.991 48.968,221.196 47.749,221.197 47.035 C 221.198 46.321,221.413 45.326,221.675 44.824 C 221.937 44.322,222.151 43.525,222.151 43.052 C 222.151 42.580,222.362 41.915,222.619 41.575 C 222.877 41.235,223.092 40.559,223.097 40.073 L 223.108 39.191 216.175 39.277 L 209.243 39.363 209.084 110.120 L 208.924 180.876 192.669 180.876 L 176.414 180.876 176.334 111.496 L 176.254 42.116 174.900 41.503 C 172.786 40.545,170.537 39.917,168.367 39.679 L 166.375 39.459 166.375 41.265 C 166.375 42.257,166.523 43.347,166.704 43.685 C 168.491 47.025,168.510 75.011,166.727 78.343 C 166.533 78.705,166.375 79.486,166.375 80.077 C 166.375 80.669,166.164 81.431,165.907 81.772 C 165.649 82.112,165.434 82.681,165.428 83.037 C 165.423 83.392,165.222 83.966,164.981 84.312 C 164.740 84.657,164.442 85.406,164.318 85.976 C 164.194 86.546,163.984 87.012,163.851 87.012 C 163.717 87.012,163.455 87.348,163.268 87.758 C 162.868 88.636,159.419 92.430,159.021 92.430 C 158.871 92.430,157.685 93.076,156.385 93.865 C 155.086 94.653,153.790 95.299,153.505 95.299 C 153.221 95.299,152.988 95.442,152.988 95.618 C 152.988 95.793,153.152 95.936,153.352 95.936 C 153.688 95.936,154.996 96.491,157.753 97.803 C 158.701 98.254,159.957 99.371,161.774 101.381 C 162.026 101.659,162.231 102.108,162.231 102.378 C 162.231 102.649,162.446 103.049,162.709 103.267 C 162.972 103.485,163.187 103.906,163.187 104.201 C 163.187 104.497,163.398 105.017,163.655 105.357 C 163.913 105.698,164.129 106.263,164.135 106.614 C 164.142 106.964,164.378 107.681,164.660 108.207 C 165.833 110.397,166.795 180.051,165.662 180.770 C 164.917 181.243,133.354 181.095,132.957 180.616 C 132.711 180.320,132.583 170.049,132.520 145.693 C 132.436 113.218,132.397 111.172,131.873 110.878 C 131.566 110.706,131.315 110.283,131.315 109.936 C 131.315 109.588,130.995 109.168,130.598 108.997 C 130.203 108.826,129.665 108.562,129.402 108.410 C 127.879 107.527,122.880 106.517,121.898 106.894 C 121.496 107.048,121.434 111.971,121.434 144.054 L 121.434 181.036 105.100 181.110 C 96.116 181.151,92.603 181.225,97.293 181.275 L 105.821 181.365 105.739 201.838 L 105.657 222.311 89.641 222.393 L 73.625 222.476 73.625 212.274 L 73.625 202.072 77.748 202.072 C 80.016 202.072,82.239 201.932,82.688 201.761 L 83.506 201.450 83.506 136.167 C 83.506 85.817,83.593 70.797,83.888 70.502 C 84.099 70.292,84.959 70.120,85.800 70.120 L 87.329 70.120 87.409 125.494 C 87.490 180.592,87.493 180.868,88.127 180.964 C 88.710 181.051,88.717 181.030,88.207 180.713 C 87.680 180.386,87.649 177.757,87.649 132.786 C 87.649 106.616,87.554 74.854,87.438 62.204 L 87.226 39.203 83.454 39.203 L 79.681 39.203 79.681 43.799 M121.511 62.869 L 121.594 77.291 125.667 77.380 C 130.259 77.481,131.990 77.158,132.540 76.097 C 132.745 75.702,133.264 74.805,133.693 74.104 C 134.196 73.282,134.484 72.318,134.502 71.394 C 134.517 70.606,134.737 69.386,134.989 68.685 C 135.643 66.870,135.637 58.275,134.980 56.414 C 134.717 55.669,134.502 54.382,134.502 53.554 C 134.502 51.950,133.058 49.402,132.149 49.402 C 131.908 49.402,131.533 49.187,131.315 48.924 C 130.995 48.539,130.002 48.446,126.173 48.446 L 121.428 48.446 121.511 62.869 M324.081 62.489 C 333.452 66.602,339.403 72.298,342.712 80.319 C 344.055 83.576,344.542 85.037,344.542 85.812 C 344.542 86.284,344.750 87.286,345.005 88.037 C 345.484 89.448,346.043 101.827,346.338 117.530 L 346.477 124.940 330.051 124.940 C 321.017 124.940,313.625 124.859,313.625 124.760 C 313.625 124.661,313.805 124.266,314.024 123.883 C 314.307 123.389,314.468 120.465,314.582 113.785 L 314.741 104.382 318.939 104.223 C 321.248 104.135,323.256 103.944,323.401 103.798 C 323.790 103.408,323.899 75.925,323.526 72.191 C 323.057 67.485,322.598 64.686,322.085 63.383 C 321.396 61.637,321.764 61.472,324.081 62.489 M290.497 83.817 L 291.315 84.128 291.315 93.559 C 291.315 104.946,291.077 104.223,294.826 104.223 C 298.122 104.223,298.119 104.219,297.946 107.583 L 297.849 109.482 287.490 109.571 C 281.793 109.620,276.807 109.581,276.411 109.484 L 275.690 109.309 275.773 96.661 L 275.857 84.013 276.653 83.791 C 277.893 83.446,289.580 83.468,290.497 83.817 M158.728 93.625 C 158.748 95.412,156.259 97.763,155.750 96.437 C 155.654 96.187,155.173 95.936,154.680 95.880 C 153.823 95.781,153.851 95.743,155.312 94.997 C 156.152 94.567,156.995 94.030,157.184 93.801 C 157.551 93.359,158.723 93.225,158.728 93.625 M346.697 138.413 L 346.780 151.407 345.959 151.720 C 345.437 151.918,341.236 151.945,334.402 151.793 L 323.665 151.554 323.581 142.072 L 323.496 132.590 318.880 132.590 C 313.041 132.590,312.988 132.555,312.988 128.669 C 312.988 124.918,311.322 125.241,330.186 125.336 L 346.614 125.418 346.697 138.413 M370.677 131.474 C 370.896 131.737,371.260 131.952,371.488 131.952 C 371.897 131.952,376.425 134.138,376.733 134.484 C 376.821 134.583,377.531 135.093,378.311 135.618 C 381.180 137.551,386.333 143.401,387.219 145.732 C 387.390 146.183,387.672 146.639,387.844 146.746 C 388.017 146.852,388.252 147.368,388.367 147.892 C 388.482 148.416,388.702 148.845,388.856 148.845 C 389.009 148.845,389.231 149.382,389.350 150.040 C 389.468 150.697,389.702 151.408,389.869 151.619 C 391.293 153.415,391.728 159.872,391.636 177.808 L 391.554 193.944 376.182 194.027 L 360.810 194.110 360.635 193.390 C 360.538 192.993,360.499 188.223,360.548 182.789 L 360.637 172.908 365.100 172.749 L 369.562 172.590 369.562 155.060 C 369.562 137.186,369.520 136.439,368.300 132.351 L 367.896 130.996 369.088 130.996 C 369.759 130.996,370.454 131.205,370.677 131.474 M233.233 174.343 C 233.610 174.693,234.067 174.980,234.250 174.980 C 234.432 174.980,234.582 175.128,234.582 175.309 C 234.582 175.490,234.822 175.730,235.115 175.842 C 235.408 175.955,235.910 176.309,236.231 176.629 C 236.551 176.949,237.028 177.211,237.291 177.211 C 237.554 177.211,237.769 177.343,237.769 177.505 C 237.769 177.666,238.189 177.890,238.703 178.003 C 239.217 178.116,239.808 178.414,240.017 178.666 C 240.226 178.918,240.722 179.124,241.120 179.124 C 241.518 179.124,241.927 179.339,242.028 179.602 C 242.133 179.875,242.608 180.080,243.138 180.080 C 243.648 180.080,244.229 180.277,244.429 180.518 C 244.629 180.759,245.328 181.049,245.982 181.161 C 247.035 181.343,247.261 181.557,247.950 183.031 C 248.379 183.947,249.024 185.155,249.385 185.715 C 249.745 186.275,250.371 187.283,250.775 187.955 C 251.180 188.627,252.218 189.963,253.082 190.923 L 254.653 192.669 254.657 207.573 L 254.661 222.476 238.964 222.393 L 223.267 222.311 223.183 212.628 C 223.082 201.068,222.667 202.072,227.545 202.072 C 230.015 202.072,231.396 201.943,231.649 201.689 C 231.935 201.404,232.032 197.815,232.032 187.506 C 232.032 179.916,232.148 173.705,232.290 173.705 C 232.433 173.705,232.857 173.992,233.233 174.343 M157.131 191.383 C 157.131 203.254,156.519 202.072,162.674 202.072 L 166.983 202.072 167.170 203.108 C 167.272 203.677,167.314 208.231,167.264 213.227 L 167.171 222.311 150.885 222.470 C 137.728 222.599,134.498 222.714,134.073 223.067 C 133.191 223.799,133.277 249.395,134.162 249.869 C 134.543 250.073,138.020 250.199,143.248 250.199 L 151.718 250.199 151.636 270.837 L 151.554 291.474 135.936 291.474 L 120.319 291.474 120.319 281.116 L 120.319 270.757 124.861 270.669 L 129.402 270.580 129.407 237.043 C 129.409 218.598,129.498 203.183,129.603 202.789 C 129.795 202.073,129.807 202.072,136.747 202.072 C 145.687 202.072,144.701 203.418,144.701 191.212 L 144.701 181.355 150.916 181.355 L 157.131 181.355 157.131 191.383 M200.478 191.331 C 200.478 198.665,200.579 201.408,200.861 201.689 C 201.126 201.954,202.789 202.072,206.287 202.072 L 211.331 202.072 211.646 202.902 C 211.836 203.400,211.928 207.442,211.877 213.021 L 211.793 222.311 195.697 222.311 L 179.602 222.311 179.509 213.227 C 179.458 208.231,179.501 203.677,179.603 203.108 L 179.790 202.072 184.203 202.072 C 189.585 202.072,189.004 203.387,189.004 191.209 L 189.004 181.355 194.741 181.355 L 200.478 181.355 200.478 191.331 M344.936 195.881 C 344.735 196.394,344.472 197.530,344.353 198.406 C 344.233 199.283,343.940 200.283,343.701 200.629 C 343.462 200.974,343.277 201.692,343.289 202.222 C 343.319 203.478,343.939 201.921,344.908 198.161 C 345.566 195.607,345.583 194.235,344.936 195.881 M342.688 203.734 C 342.480 203.942,342.308 204.406,342.304 204.765 C 342.300 205.124,342.016 205.777,341.673 206.215 C 341.331 206.653,341.047 207.135,341.043 207.284 C 341.039 207.434,340.606 208.195,340.080 208.974 C 339.554 209.753,339.124 210.455,339.124 210.534 C 339.124 210.613,338.837 211.000,338.486 211.394 C 337.230 212.807,336.892 213.229,336.892 213.386 C 336.892 213.637,335.644 214.821,335.378 214.822 C 335.247 214.823,334.621 215.289,333.988 215.858 C 332.560 217.141,331.877 217.602,330.757 218.044 C 330.275 218.234,329.880 218.518,329.880 218.677 C 329.880 218.835,329.701 218.967,329.482 218.971 C 329.263 218.975,328.725 219.259,328.287 219.602 C 327.849 219.944,327.185 220.228,326.812 220.232 C 326.439 220.236,325.955 220.454,325.737 220.717 C 325.519 220.980,324.938 221.195,324.446 221.195 C 323.954 221.195,323.357 221.389,323.120 221.627 C 322.883 221.864,321.976 222.164,321.105 222.294 C 320.234 222.424,319.378 222.644,319.203 222.784 C 319.028 222.924,318.598 223.119,318.247 223.218 C 317.896 223.316,318.112 223.343,318.725 223.279 C 320.116 223.131,322.406 222.533,323.665 221.988 C 324.191 221.760,325.482 221.237,326.534 220.827 C 327.586 220.416,329.041 219.685,329.767 219.203 C 330.494 218.721,331.196 218.327,331.328 218.327 C 331.460 218.327,332.180 217.825,332.929 217.211 C 333.678 216.598,334.385 216.096,334.501 216.096 C 335.037 216.096,338.571 212.153,339.812 210.170 C 340.573 208.955,341.375 207.676,341.594 207.327 C 341.814 206.978,342.140 206.335,342.318 205.896 C 342.497 205.458,342.807 204.777,343.008 204.383 C 343.429 203.558,343.243 203.180,342.688 203.734 M289.084 221.707 C 290.894 222.496,293.800 223.427,294.412 223.414 C 295.194 223.397,293.198 222.553,291.717 222.276 C 291.066 222.153,290.341 221.860,290.105 221.624 C 289.869 221.388,289.291 221.201,288.822 221.208 C 288.005 221.220,288.016 221.241,289.084 221.707 M392.351 240.512 C 392.351 255.127,392.259 259.108,391.868 261.468 C 390.921 267.190,390.492 268.971,389.327 272.032 C 388.860 273.259,388.400 274.586,388.305 274.980 C 388.210 275.375,388.016 275.697,387.873 275.697 C 387.730 275.697,387.516 276.002,387.398 276.374 C 386.629 278.796,379.835 286.215,378.387 286.215 C 378.216 286.215,377.994 286.430,377.893 286.693 C 377.792 286.956,377.447 287.171,377.126 287.171 C 376.805 287.171,376.406 287.307,376.239 287.473 C 375.620 288.089,370.883 290.359,370.216 290.359 C 369.836 290.359,369.246 290.569,368.906 290.827 C 368.565 291.084,367.895 291.299,367.417 291.305 C 366.938 291.310,366.006 291.517,365.345 291.765 C 360.767 293.482,343.863 293.479,339.830 291.761 C 339.254 291.515,338.513 291.315,338.182 291.315 C 337.852 291.315,337.175 291.109,336.679 290.857 C 336.183 290.605,334.988 290.086,334.024 289.703 C 328.161 287.378,321.352 281.078,318.026 274.901 C 315.794 270.756,315.831 270.350,318.374 271.083 C 324.687 272.901,339.585 272.286,346.135 269.938 C 352.763 267.562,356.170 265.625,359.790 262.179 C 363.580 258.569,365.839 254.867,367.586 249.398 C 369.614 243.054,369.767 241.934,369.944 232.191 C 370.083 224.551,370.179 223.210,370.612 222.869 C 370.994 222.568,373.723 222.470,381.734 222.470 L 392.351 222.470 392.351 240.512 M211.315 223.393 L 212.112 223.614 212.195 236.489 C 212.248 244.627,212.163 249.479,211.964 249.677 C 211.558 250.083,180.455 250.229,179.681 249.828 C 179.164 249.560,179.124 248.603,179.124 236.658 C 179.124 224.726,179.165 223.753,179.681 223.452 C 180.315 223.083,210.001 223.027,211.315 223.393 M254.995 223.745 C 255.356 224.303,255.270 249.379,254.905 249.743 C 254.518 250.130,224.050 250.179,223.206 249.795 L 222.470 249.459 222.470 236.629 L 222.470 223.798 223.347 223.471 C 224.884 222.896,254.612 223.154,254.995 223.745 M296.892 223.929 C 298.099 224.318,300.036 224.460,304.861 224.515 C 309.475 224.568,309.701 224.558,305.681 224.478 C 302.379 224.412,299.960 224.229,299.717 224.027 C 299.491 223.840,298.405 223.626,297.303 223.552 L 295.299 223.417 296.892 223.929 M312.669 223.924 C 311.133 224.506,312.395 224.507,315.219 223.927 L 317.291 223.502 315.538 223.502 C 314.574 223.502,313.283 223.692,312.669 223.924 M203.422 260.319 L 203.506 270.438 208.127 270.598 L 212.749 270.757 212.749 281.116 L 212.749 291.474 196.888 291.557 L 181.027 291.639 181.111 281.198 L 181.195 270.757 185.976 270.598 L 190.757 270.438 190.841 260.319 L 190.925 250.199 197.131 250.199 L 203.338 250.199 203.422 260.319 M246.768 260.319 L 246.853 270.438 252.112 270.626 C 255.004 270.729,257.406 270.836,257.450 270.865 C 257.494 270.893,257.530 275.579,257.530 281.278 L 257.530 291.639 241.833 291.557 L 226.135 291.474 226.051 281.195 C 226.005 275.542,226.005 270.895,226.051 270.869 C 226.098 270.843,228.143 270.735,230.598 270.630 L 235.060 270.438 235.144 260.319 L 235.228 250.199 240.956 250.199 L 246.684 250.199 246.768 260.319 " stroke="none" fill="#3c3c3c" fill-rule="evenodd"/>
    <path id="path3" d="M321.823 62.028 C 321.716 62.136,321.833 62.745,322.085 63.383 C 322.598 64.686,323.057 67.485,323.526 72.191 C 323.899 75.925,323.790 103.408,323.401 103.798 C 323.256 103.944,321.248 104.135,318.939 104.223 L 314.741 104.382 314.582 113.785 C 314.468 120.465,314.307 123.389,314.024 123.883 C 313.805 124.266,313.625 124.661,313.625 124.760 C 313.625 124.859,321.017 124.940,330.051 124.940 L 346.477 124.940 346.338 117.530 C 346.043 101.827,345.484 89.448,345.005 88.037 C 344.750 87.286,344.542 86.284,344.542 85.812 C 344.542 84.852,343.179 81.129,341.714 78.088 C 339.135 72.732,333.611 67.249,327.809 64.286 C 323.576 62.124,322.233 61.618,321.823 62.028 M83.888 70.502 C 83.593 70.797,83.506 85.817,83.506 136.167 L 83.506 201.450 82.688 201.761 C 82.239 201.932,80.016 202.072,77.748 202.072 L 73.625 202.072 73.625 212.274 L 73.625 222.476 89.641 222.393 L 105.657 222.311 105.739 201.851 L 105.821 181.392 96.974 181.293 C 92.109 181.239,87.948 181.079,87.729 180.937 C 87.413 180.733,87.331 169.274,87.331 125.400 L 87.331 70.120 85.801 70.120 C 84.959 70.120,84.099 70.292,83.888 70.502 M276.653 83.791 L 275.857 84.013 275.773 96.661 L 275.690 109.309 276.411 109.484 C 276.807 109.581,281.793 109.620,287.490 109.571 L 297.849 109.482 297.946 107.583 C 298.119 104.219,298.122 104.223,294.826 104.223 C 291.077 104.223,291.315 104.946,291.315 93.559 L 291.315 84.128 290.497 83.817 C 289.580 83.468,277.893 83.446,276.653 83.791 M157.184 93.801 C 156.995 94.030,156.152 94.567,155.312 94.997 C 153.851 95.743,153.823 95.781,154.680 95.880 C 155.173 95.936,155.654 96.187,155.750 96.437 C 156.259 97.763,158.748 95.412,158.728 93.625 C 158.723 93.225,157.551 93.359,157.184 93.801 M368.300 132.351 C 369.520 136.439,369.562 137.186,369.562 155.060 L 369.562 172.590 365.100 172.749 L 360.637 172.908 360.548 182.789 C 360.499 188.223,360.538 192.993,360.635 193.390 L 360.810 194.110 376.182 194.027 L 391.554 193.944 391.636 177.808 C 391.728 159.872,391.293 153.415,389.869 151.619 C 389.702 151.408,389.468 150.697,389.350 150.040 C 389.231 149.382,389.009 148.845,388.856 148.845 C 388.702 148.845,388.482 148.416,388.367 147.892 C 388.252 147.368,388.017 146.852,387.844 146.746 C 387.672 146.639,387.390 146.183,387.219 145.732 C 386.333 143.401,381.180 137.551,378.311 135.618 C 377.531 135.093,376.821 134.583,376.733 134.484 C 376.425 134.138,371.897 131.952,371.488 131.952 C 371.260 131.952,370.896 131.737,370.677 131.474 C 370.454 131.205,369.759 130.996,369.088 130.996 L 367.896 130.996 368.300 132.351 M323.824 160.876 C 323.822 173.494,322.978 178.168,319.366 185.548 C 317.760 188.830,316.720 190.305,314.254 192.797 C 312.260 194.813,311.391 195.486,308.207 197.487 C 300.141 202.557,286.650 204.769,275.219 202.898 C 269.697 201.994,269.753 201.999,270.359 202.385 C 270.665 202.581,270.916 203.103,270.916 203.545 C 270.916 203.987,271.131 204.563,271.394 204.826 C 271.657 205.089,271.873 205.586,271.873 205.929 C 271.873 206.273,272.088 206.636,272.351 206.737 C 272.614 206.838,272.829 207.095,272.829 207.309 C 272.829 207.776,275.819 211.821,277.236 213.270 C 277.792 213.839,278.247 214.420,278.247 214.562 C 278.247 214.705,278.426 214.821,278.645 214.822 C 278.865 214.823,279.567 215.304,280.206 215.891 C 280.844 216.478,281.597 217.046,281.879 217.154 C 282.160 217.262,282.390 217.498,282.390 217.679 C 282.390 217.860,282.570 218.008,282.790 218.008 C 283.010 218.008,283.895 218.510,284.758 219.124 C 285.621 219.737,286.593 220.239,286.919 220.239 C 287.244 220.239,287.593 220.454,287.694 220.717 C 287.797 220.986,288.271 221.195,288.776 221.195 C 289.271 221.195,289.891 221.410,290.154 221.673 C 290.417 221.936,290.893 222.158,291.212 222.165 C 291.532 222.173,292.367 222.397,293.068 222.664 C 293.769 222.930,295.475 223.275,296.860 223.430 C 298.244 223.585,299.528 223.862,299.712 224.047 C 300.242 224.576,311.058 224.485,312.738 223.937 C 313.489 223.692,315.141 223.424,316.410 223.342 C 317.678 223.260,318.897 223.044,319.119 222.862 C 319.341 222.679,320.234 222.424,321.105 222.294 C 321.976 222.164,322.883 221.864,323.120 221.627 C 323.357 221.389,323.954 221.195,324.446 221.195 C 324.938 221.195,325.519 220.980,325.737 220.717 C 325.955 220.454,326.439 220.236,326.812 220.232 C 327.185 220.228,327.849 219.944,328.287 219.602 C 328.725 219.259,329.263 218.975,329.482 218.971 C 329.701 218.967,329.880 218.835,329.880 218.677 C 329.880 218.518,330.275 218.234,330.757 218.044 C 331.877 217.602,332.560 217.141,333.988 215.858 C 334.621 215.289,335.247 214.823,335.378 214.822 C 335.644 214.821,336.892 213.637,336.892 213.386 C 336.892 213.299,337.143 212.940,337.450 212.590 C 337.757 212.239,338.259 211.665,338.566 211.315 C 338.873 210.964,339.124 210.613,339.124 210.534 C 339.124 210.455,339.554 209.753,340.080 208.974 C 340.606 208.195,341.039 207.434,341.043 207.284 C 341.047 207.135,341.331 206.653,341.673 206.215 C 342.016 205.777,342.300 205.113,342.304 204.740 C 342.308 204.367,342.526 203.884,342.789 203.665 C 343.052 203.447,343.267 202.816,343.267 202.263 C 343.267 201.710,343.464 200.974,343.705 200.629 C 343.947 200.283,344.250 199.211,344.380 198.247 C 344.509 197.283,344.777 196.207,344.974 195.857 C 346.110 193.841,347.030 153.915,345.950 153.500 C 345.673 153.394,343.723 153.307,341.617 153.307 C 338.057 153.307,337.777 153.262,337.622 152.669 C 337.462 152.057,337.187 152.032,330.640 152.032 L 323.825 152.032 323.824 160.876 M232.032 187.506 C 232.032 197.815,231.935 201.404,231.649 201.689 C 231.396 201.943,230.015 202.072,227.545 202.072 C 222.667 202.072,223.082 201.068,223.183 212.628 L 223.267 222.311 238.964 222.393 L 254.661 222.476 254.657 207.573 L 254.653 192.669 253.082 190.923 C 252.218 189.963,251.180 188.627,250.775 187.955 C 250.371 187.283,249.745 186.275,249.385 185.715 C 249.024 185.155,248.379 183.947,247.950 183.031 C 247.261 181.557,247.035 181.343,245.982 181.161 C 245.328 181.049,244.629 180.759,244.429 180.518 C 244.229 180.277,243.648 180.080,243.138 180.080 C 242.608 180.080,242.133 179.875,242.028 179.602 C 241.927 179.339,241.518 179.124,241.120 179.124 C 240.722 179.124,240.226 178.918,240.017 178.666 C 239.808 178.414,239.217 178.116,238.703 178.003 C 238.189 177.890,237.769 177.666,237.769 177.505 C 237.769 177.343,237.554 177.211,237.291 177.211 C 237.028 177.211,236.551 176.949,236.231 176.629 C 235.910 176.309,235.408 175.955,235.115 175.842 C 234.822 175.730,234.582 175.490,234.582 175.309 C 234.582 175.128,234.432 174.980,234.250 174.980 C 234.067 174.980,233.610 174.693,233.233 174.343 C 232.857 173.992,232.433 173.705,232.290 173.705 C 232.148 173.705,232.032 179.916,232.032 187.506 M144.701 191.212 C 144.701 203.418,145.687 202.072,136.747 202.072 C 129.807 202.072,129.795 202.073,129.603 202.789 C 129.498 203.183,129.409 218.598,129.407 237.043 L 129.402 270.580 124.861 270.669 L 120.319 270.757 120.319 281.116 L 120.319 291.474 135.936 291.474 L 151.554 291.474 151.636 270.837 L 151.718 250.199 143.248 250.199 C 138.020 250.199,134.543 250.073,134.162 249.869 C 133.277 249.395,133.191 223.799,134.073 223.067 C 134.498 222.714,137.728 222.599,150.885 222.470 L 167.171 222.311 167.264 213.227 C 167.314 208.231,167.272 203.677,167.170 203.108 L 166.983 202.072 162.674 202.072 C 156.519 202.072,157.131 203.254,157.131 191.383 L 157.131 181.355 150.916 181.355 L 144.701 181.355 144.701 191.212 M189.004 191.209 C 189.004 203.387,189.585 202.072,184.203 202.072 L 179.790 202.072 179.603 203.108 C 179.501 203.677,179.458 208.231,179.509 213.227 L 179.602 222.311 195.697 222.311 L 211.793 222.311 211.877 213.021 C 211.928 207.442,211.836 203.400,211.646 202.902 L 211.331 202.072 206.287 202.072 C 202.789 202.072,201.126 201.954,200.861 201.689 C 200.579 201.408,200.478 198.665,200.478 191.331 L 200.478 181.355 194.741 181.355 L 189.004 181.355 189.004 191.209 M370.612 222.869 C 370.179 223.210,370.083 224.551,369.944 232.191 C 369.767 241.934,369.614 243.054,367.586 249.398 C 365.839 254.867,363.580 258.569,359.790 262.179 C 356.170 265.625,352.763 267.562,346.135 269.938 C 339.585 272.286,324.687 272.901,318.374 271.083 C 315.831 270.350,315.794 270.756,318.026 274.901 C 321.352 281.078,328.161 287.378,334.024 289.703 C 334.988 290.086,336.183 290.605,336.679 290.857 C 337.175 291.109,337.852 291.315,338.182 291.315 C 338.513 291.315,339.254 291.515,339.830 291.761 C 343.863 293.479,360.767 293.482,365.345 291.765 C 366.006 291.517,366.938 291.310,367.417 291.305 C 367.895 291.299,368.565 291.084,368.906 290.827 C 369.246 290.569,369.836 290.359,370.216 290.359 C 370.883 290.359,375.620 288.089,376.239 287.473 C 376.406 287.307,376.805 287.171,377.126 287.171 C 377.447 287.171,377.792 286.956,377.893 286.693 C 377.994 286.430,378.216 286.215,378.387 286.215 C 379.835 286.215,386.629 278.796,387.398 276.374 C 387.516 276.002,387.730 275.697,387.873 275.697 C 388.016 275.697,388.210 275.375,388.305 274.980 C 388.400 274.586,388.860 273.259,389.327 272.032 C 390.492 268.971,390.921 267.190,391.868 261.468 C 392.259 259.108,392.351 255.127,392.351 240.512 L 392.351 222.470 381.734 222.470 C 373.723 222.470,370.994 222.568,370.612 222.869 M277.928 256.724 L 277.928 270.579 273.865 270.668 L 269.801 270.757 269.801 281.116 L 269.801 291.474 285.100 291.474 L 300.398 291.474 300.476 276.335 L 300.553 261.195 298.785 259.124 C 297.813 257.984,296.846 256.732,296.636 256.342 C 296.426 255.951,295.619 254.409,294.842 252.915 C 293.967 251.234,293.235 250.199,292.921 250.199 C 292.641 250.199,292.130 250.004,291.784 249.766 C 291.438 249.528,290.632 249.238,289.992 249.120 C 289.352 249.003,288.654 248.696,288.439 248.438 C 288.225 248.179,287.726 247.968,287.331 247.968 C 286.935 247.968,286.433 247.753,286.215 247.490 C 285.997 247.227,285.571 247.012,285.269 247.012 C 284.966 247.012,284.374 246.728,283.953 246.380 C 282.695 245.343,282.586 245.271,281.673 244.865 C 281.191 244.651,280.797 244.329,280.797 244.150 C 280.797 243.971,280.597 243.825,280.353 243.825 C 280.109 243.825,279.826 243.610,279.725 243.347 C 279.624 243.084,279.179 242.869,278.735 242.869 L 277.928 242.869 277.928 256.724 M190.841 260.319 L 190.757 270.438 185.976 270.598 L 181.195 270.757 181.111 281.198 L 181.027 291.639 196.888 291.557 L 212.749 291.474 212.749 281.116 L 212.749 270.757 208.127 270.598 L 203.506 270.438 203.422 260.319 L 203.338 250.199 197.131 250.199 L 190.925 250.199 190.841 260.319 M235.144 260.319 L 235.060 270.438 230.598 270.630 C 228.143 270.735,226.098 270.843,226.051 270.869 C 226.005 270.895,226.005 275.542,226.051 281.195 L 226.135 291.474 241.833 291.557 L 257.530 291.639 257.530 281.278 C 257.530 275.579,257.494 270.893,257.450 270.865 C 257.406 270.836,255.004 270.729,252.112 270.626 L 246.853 270.438 246.768 260.319 L 246.684 250.199 240.956 250.199 L 235.228 250.199 235.144 260.319 " stroke="none" fill="#151515" fill-rule="evenodd"/>
  </g>
</svg>